<svg width="24" height="24" viewBox="0 0 24 24" fill="none" xmlns="http://www.w3.org/2000/svg">
<path d="M7.24463 14.781L10.2376 10.891L13.6516 13.573L16.5806 9.79303" stroke="#AFAFAF" stroke-width="1.5" stroke-linecap="round" stroke-linejoin="round"/>
<path d="M19.9948 6.12202C21.0562 6.12202 21.9168 5.26151 21.9168 4.20002C21.9168 3.13852 21.0562 2.27802 19.9948 2.27802C18.9333 2.27802 18.0728 3.13852 18.0728 4.20002C18.0728 5.26151 18.9333 6.12202 19.9948 6.12202Z" stroke="#AFAFAF" stroke-width="1.5" stroke-linecap="round" stroke-linejoin="round"/>
<path d="M14.9243 3.12018H7.65655C4.64511 3.12018 2.77783 5.2529 2.77783 8.26434V16.3467C2.77783 19.3582 4.6085 21.4817 7.65655 21.4817H16.2607C19.2721 21.4817 21.1394 19.3582 21.1394 16.3467V9.30782" stroke="#AFAFAF" stroke-width="1.5" stroke-linecap="round" stroke-linejoin="round"/>
</svg>
