<svg width="109" height="109" viewBox="0 0 109 109" fill="none" xmlns="http://www.w3.org/2000/svg">
<g clip-path="url(#clip0_6401_694)">
<path d="M96 53C96 76.7482 76.7482 96 53 96C29.2518 96 10 76.7482 10 53C10 29.2518 29.2518 10 53 10C76.7482 10 96 29.2518 96 53Z" stroke="#AFAFAF" stroke-width="20"/>
<path d="M96 53C96 62.2435 93.0214 71.241 87.5057 78.6585C81.9901 86.076 74.231 91.5187 65.3788 94.1797C56.5266 96.8407 47.0525 96.5783 38.3612 93.4315C29.6698 90.2847 22.2239 84.4209 17.1272 76.7095C12.0305 68.9981 9.55438 59.8496 10.0659 50.6202C10.5775 41.3909 14.0495 32.5721 19.9672 25.4712C25.885 18.3703 33.9334 13.3654 42.9193 11.1984C51.9052 9.03135 61.3502 9.81764 69.8541 13.4407" stroke="#3B3F48" stroke-width="20"/>
<path d="M96 53C96 60.191 94.1966 67.2672 90.7547 73.581C87.3129 79.8949 82.3426 85.2447 76.2986 89.141C70.2546 93.0373 63.3299 95.3556 56.1583 95.8838C48.9867 96.412 41.7972 95.1332 35.2476 92.1644C28.698 89.1956 22.9975 84.6316 18.6678 78.8901C14.3381 73.1486 11.5175 66.413 10.464 59.2995C9.41044 52.1861 10.1578 44.922 12.6375 38.1721C15.1172 31.4221 19.2501 25.4018 24.6581 20.6621" stroke="#76D9DF" stroke-width="20"/>
<path d="M95.9998 53C95.9998 59.9548 94.3129 66.8057 91.0838 72.9654C87.8546 79.125 83.1795 84.4095 77.4596 88.3656C71.7396 92.3216 65.1454 94.8313 58.2425 95.6792C51.3396 96.5271 44.3341 95.6881 37.8267 93.234" stroke="#00B3FF" stroke-width="26"/>
</g>
<defs>
<clipPath id="clip0_6401_694">
<rect width="109" height="109" fill="white"/>
</clipPath>
</defs>
</svg>
