<svg width="237" height="85" viewBox="0 0 237 85" fill="none" xmlns="http://www.w3.org/2000/svg">
<path d="M12 0.5H225C231.351 0.5 236.5 5.64873 236.5 12V73C236.5 79.3513 231.351 84.5 225 84.5H12C5.64872 84.5 0.5 79.3513 0.5 73V12C0.5 5.64873 5.64873 0.5 12 0.5Z" fill="white"/>
<path d="M1 9C1 5.68629 3.68629 3 7 3V82C3.68629 82 1 79.3137 1 76V9Z" fill="#00B3FF"/>
<path d="M12 0.5H225C231.351 0.5 236.5 5.64873 236.5 12V73C236.5 79.3513 231.351 84.5 225 84.5H12C5.64872 84.5 0.5 79.3513 0.5 73V12C0.5 5.64873 5.64873 0.5 12 0.5Z" stroke="#E6E9EE"/>
</svg>
