<svg width="238" height="85" viewBox="0 0 238 85" fill="none" xmlns="http://www.w3.org/2000/svg">
<path d="M12 0.5H226C232.351 0.5 237.5 5.64873 237.5 12V73C237.5 79.3513 232.351 84.5 226 84.5H12C5.64873 84.5 0.5 79.3513 0.5 73V12C0.5 5.64873 5.64873 0.5 12 0.5Z" fill="white"/>
<path d="M1 9C1 5.68629 3.68629 3 7 3V82C3.68629 82 1 79.3137 1 76V9Z" fill="#2DD683"/>
<path d="M12 0.5H226C232.351 0.5 237.5 5.64873 237.5 12V73C237.5 79.3513 232.351 84.5 226 84.5H12C5.64873 84.5 0.5 79.3513 0.5 73V12C0.5 5.64873 5.64873 0.5 12 0.5Z" stroke="#E6E9EE"/>
</svg>
