<svg width="36" height="36" viewBox="0 0 36 36" fill="none" xmlns="http://www.w3.org/2000/svg">
<circle cx="18" cy="18" r="18" fill="#F5F6FA"/>
<path d="M22.5 15C22.5 13.8065 22.0259 12.6619 21.182 11.818C20.3381 10.9741 19.1935 10.5 18 10.5C16.8065 10.5 15.6619 10.9741 14.818 11.818C13.9741 12.6619 13.5 13.8065 13.5 15C13.5 20.25 11.25 21.75 11.25 21.75H24.75C24.75 21.75 22.5 20.25 22.5 15Z" stroke="#D6D7DB" stroke-width="1.5" stroke-linecap="round" stroke-linejoin="round"/>
<path d="M19.2976 24.75C19.1658 24.9773 18.9765 25.166 18.7488 25.2971C18.5211 25.4283 18.2629 25.4973 18.0001 25.4973C17.7374 25.4973 17.4792 25.4283 17.2515 25.2971C17.0238 25.166 16.8345 24.9773 16.7026 24.75" stroke="#D6D7DB" stroke-width="1.5" stroke-linecap="round" stroke-linejoin="round"/>
</svg>
