<svg width="36" height="36" viewBox="0 0 36 36" fill="none" xmlns="http://www.w3.org/2000/svg">
<circle cx="18" cy="18" r="18" fill="#F5F6FA"/>
<g clip-path="url(#clip0_6401_428)">
<path d="M18 20.25C19.2426 20.25 20.25 19.2426 20.25 18C20.25 16.7574 19.2426 15.75 18 15.75C16.7574 15.75 15.75 16.7574 15.75 18C15.75 19.2426 16.7574 20.25 18 20.25Z" stroke="#D6D7DB" stroke-width="1.5" stroke-linecap="round" stroke-linejoin="round"/>
<path d="M23.55 20.25C23.4502 20.4762 23.4204 20.7271 23.4645 20.9704C23.5086 21.2137 23.6246 21.4382 23.7975 21.615L23.8425 21.66C23.982 21.7993 24.0926 21.9647 24.1681 22.1468C24.2436 22.3289 24.2824 22.5241 24.2824 22.7213C24.2824 22.9184 24.2436 23.1136 24.1681 23.2957C24.0926 23.4778 23.982 23.6432 23.8425 23.7825C23.7032 23.922 23.5378 24.0326 23.3557 24.1081C23.1736 24.1836 22.9784 24.2224 22.7812 24.2224C22.5841 24.2224 22.3889 24.1836 22.2068 24.1081C22.0247 24.0326 21.8593 23.922 21.72 23.7825L21.675 23.7375C21.4982 23.5646 21.2737 23.4486 21.0304 23.4045C20.7871 23.3604 20.5362 23.3902 20.31 23.49C20.0882 23.5851 19.899 23.7429 19.7657 23.9442C19.6325 24.1454 19.561 24.3812 19.56 24.6225V24.75C19.56 25.1478 19.402 25.5294 19.1207 25.8107C18.8394 26.092 18.4578 26.25 18.06 26.25C17.6622 26.25 17.2806 26.092 16.9993 25.8107C16.718 25.5294 16.56 25.1478 16.56 24.75V24.6825C16.5542 24.4343 16.4738 24.1935 16.3294 23.9915C16.1849 23.7896 15.9831 23.6357 15.75 23.55C15.5238 23.4502 15.2729 23.4204 15.0296 23.4645C14.7863 23.5086 14.5618 23.6246 14.385 23.7975L14.34 23.8425C14.2007 23.982 14.0353 24.0926 13.8532 24.1681C13.6711 24.2436 13.4759 24.2824 13.2787 24.2824C13.0816 24.2824 12.8864 24.2436 12.7043 24.1681C12.5222 24.0926 12.3568 23.982 12.2175 23.8425C12.078 23.7032 11.9674 23.5378 11.8919 23.3557C11.8164 23.1736 11.7776 22.9784 11.7776 22.7812C11.7776 22.5841 11.8164 22.3889 11.8919 22.2068C11.9674 22.0247 12.078 21.8593 12.2175 21.72L12.2625 21.675C12.4354 21.4982 12.5514 21.2737 12.5955 21.0304C12.6396 20.7871 12.6098 20.5362 12.51 20.31C12.4149 20.0882 12.2571 19.899 12.0558 19.7657C11.8546 19.6325 11.6188 19.561 11.3775 19.56H11.25C10.8522 19.56 10.4706 19.402 10.1893 19.1207C9.90804 18.8394 9.75 18.4578 9.75 18.06C9.75 17.6622 9.90804 17.2806 10.1893 16.9993C10.4706 16.718 10.8522 16.56 11.25 16.56H11.3175C11.5657 16.5542 11.8065 16.4738 12.0085 16.3294C12.2104 16.1849 12.3643 15.9831 12.45 15.75C12.5498 15.5238 12.5796 15.2729 12.5355 15.0296C12.4914 14.7863 12.3754 14.5618 12.2025 14.385L12.1575 14.34C12.018 14.2007 11.9074 14.0353 11.8319 13.8532C11.7564 13.6711 11.7176 13.4759 11.7176 13.2787C11.7176 13.0816 11.7564 12.8864 11.8319 12.7043C11.9074 12.5222 12.018 12.3568 12.1575 12.2175C12.2968 12.078 12.4622 11.9674 12.6443 11.8919C12.8264 11.8164 13.0216 11.7776 13.2188 11.7776C13.4159 11.7776 13.6111 11.8164 13.7932 11.8919C13.9753 11.9674 14.1407 12.078 14.28 12.2175L14.325 12.2625C14.5018 12.4354 14.7263 12.5514 14.9696 12.5955C15.2129 12.6396 15.4638 12.6098 15.69 12.51H15.75C15.9718 12.4149 16.161 12.2571 16.2943 12.0558C16.4275 11.8546 16.499 11.6188 16.5 11.3775V11.25C16.5 10.8522 16.658 10.4706 16.9393 10.1893C17.2206 9.90804 17.6022 9.75 18 9.75C18.3978 9.75 18.7794 9.90804 19.0607 10.1893C19.342 10.4706 19.5 10.8522 19.5 11.25V11.3175C19.501 11.5588 19.5725 11.7946 19.7057 11.9958C19.839 12.1971 20.0282 12.3549 20.25 12.45C20.4762 12.5498 20.7271 12.5796 20.9704 12.5355C21.2137 12.4914 21.4382 12.3754 21.615 12.2025L21.66 12.1575C21.7993 12.018 21.9647 11.9074 22.1468 11.8319C22.3289 11.7564 22.5241 11.7176 22.7213 11.7176C22.9184 11.7176 23.1136 11.7564 23.2957 11.8319C23.4778 11.9074 23.6432 12.018 23.7825 12.1575C23.922 12.2968 24.0326 12.4622 24.1081 12.6443C24.1836 12.8264 24.2224 13.0216 24.2224 13.2188C24.2224 13.4159 24.1836 13.6111 24.1081 13.7932C24.0326 13.9753 23.922 14.1407 23.7825 14.28L23.7375 14.325C23.5646 14.5018 23.4486 14.7263 23.4045 14.9696C23.3604 15.2129 23.3902 15.4638 23.49 15.69V15.75C23.5851 15.9718 23.7429 16.161 23.9442 16.2943C24.1454 16.4275 24.3812 16.499 24.6225 16.5H24.75C25.1478 16.5 25.5294 16.658 25.8107 16.9393C26.092 17.2206 26.25 17.6022 26.25 18C26.25 18.3978 26.092 18.7794 25.8107 19.0607C25.5294 19.342 25.1478 19.5 24.75 19.5H24.6825C24.4412 19.501 24.2054 19.5725 24.0042 19.7057C23.8029 19.839 23.6451 20.0282 23.55 20.25V20.25Z" stroke="#D6D7DB" stroke-width="1.5" stroke-linecap="round" stroke-linejoin="round"/>
</g>
<defs>
<clipPath id="clip0_6401_428">
<rect width="18" height="18" fill="white" transform="translate(9 9)"/>
</clipPath>
</defs>
</svg>
