<svg width="105" height="30" viewBox="0 0 105 30" fill="none" xmlns="http://www.w3.org/2000/svg">
<g clip-path="url(#clip0_6401_384)">
<path fill-rule="evenodd" clip-rule="evenodd" d="M14.6896 30C22.8025 30 29.3792 23.2843 29.3792 15C29.3792 6.71574 22.8025 0 14.6896 0C6.57675 0 0 6.71574 0 15C0 23.2843 6.57675 30 14.6896 30ZM19.2723 6.98764C19.4953 6.17854 18.7264 5.7001 18.0242 6.21098L8.22112 13.3422C7.45954 13.8962 7.57933 15 8.40107 15H10.9825V14.9796H16.0135L11.9142 16.4566L10.107 23.0124C9.88391 23.8215 10.6528 24.2999 11.3551 23.789L21.1581 16.6579C21.9197 16.1038 21.7998 15 20.9782 15H17.0635L19.2723 6.98764Z" fill="#00B3FF"/>
<path d="M42.5401 21.731C41.5823 21.731 40.724 21.5722 39.9652 21.2547C39.2065 20.9372 38.597 20.4673 38.1367 19.8449C37.6889 19.2226 37.4526 18.4733 37.4277 17.5969H40.8235C40.8733 18.0923 41.0412 18.4733 41.3273 18.74C41.6134 18.994 41.9865 19.121 42.4468 19.121C42.9195 19.121 43.2926 19.013 43.5663 18.7971C43.8399 18.5685 43.9768 18.2574 43.9768 17.8636C43.9768 17.5334 43.8648 17.2604 43.6409 17.0445C43.4294 16.8286 43.162 16.6507 42.8386 16.511C42.5276 16.3713 42.0798 16.2126 41.4952 16.0348C40.6494 15.7681 39.959 15.5013 39.4242 15.2346C38.8893 14.9679 38.4291 14.5742 38.0435 14.0535C37.6579 13.5328 37.4651 12.8533 37.4651 12.015C37.4651 10.7704 37.9066 9.7988 38.7898 9.10027C39.6729 8.38904 40.8235 8.03342 42.2415 8.03342C43.6844 8.03342 44.8475 8.38904 45.7306 9.10027C46.6138 9.7988 47.0864 10.7767 47.1486 12.0341H43.6969C43.672 11.6023 43.5165 11.2657 43.2304 11.0244C42.9443 10.7704 42.5774 10.6434 42.1296 10.6434C41.744 10.6434 41.433 10.7513 41.1967 10.9672C40.9603 11.1705 40.8422 11.4689 40.8422 11.8626C40.8422 12.2945 41.0412 12.631 41.4392 12.8723C41.8373 13.1136 42.4592 13.374 43.3051 13.6534C44.1509 13.9455 44.835 14.2249 45.3575 14.4916C45.8923 14.7584 46.3526 15.1457 46.7382 15.6538C47.1238 16.1618 47.3166 16.8159 47.3166 17.616C47.3166 18.378 47.1238 19.0702 46.7382 19.6925C46.365 20.3148 45.8177 20.8102 45.0962 21.1785C44.3748 21.5468 43.5227 21.731 42.5401 21.731Z" fill="#15223C"/>
<path d="M48.6457 16.2634C48.6457 15.1711 48.8447 14.2122 49.2427 13.3867C49.6532 12.5612 50.2067 11.9261 50.9033 11.4816C51.5999 11.0371 52.3773 10.8148 53.2356 10.8148C53.9695 10.8148 54.6101 10.9672 55.1574 11.2721C55.7171 11.5769 56.1463 11.9769 56.4448 12.4723V10.9672H59.6353V21.5976H56.4448V20.0926C56.1338 20.5879 55.6985 20.988 55.1387 21.2928C54.5914 21.5976 53.9508 21.75 53.2169 21.75C52.3711 21.75 51.5999 21.5278 50.9033 21.0832C50.2067 20.626 49.6532 19.9846 49.2427 19.1591C48.8447 18.3209 48.6457 17.3556 48.6457 16.2634ZM56.4448 16.2824C56.4448 15.4696 56.2209 14.8282 55.7731 14.3583C55.3377 13.8884 54.8029 13.6534 54.1685 13.6534C53.5341 13.6534 52.993 13.8884 52.5452 14.3583C52.1099 14.8155 51.8922 15.4505 51.8922 16.2634C51.8922 17.0762 52.1099 17.7239 52.5452 18.2066C52.993 18.6765 53.5341 18.9114 54.1685 18.9114C54.8029 18.9114 55.3377 18.6765 55.7731 18.2066C56.2209 17.7366 56.4448 17.0953 56.4448 16.2824Z" fill="#15223C"/>
<path d="M68.306 21.5976L65.1341 17.1397V21.5976H61.9436V7.5H65.1341V15.2918L68.2873 10.9672H72.2242L67.8955 16.3015L72.2615 21.5976H68.306Z" fill="#15223C"/>
<path d="M83.758 10.9672V21.5976H80.5675V20.1497C80.2441 20.6197 79.8025 21.0007 79.2427 21.2928C78.6954 21.5722 78.0859 21.7119 77.4142 21.7119C76.6182 21.7119 75.9154 21.5341 75.3059 21.1785C74.6964 20.8102 74.2237 20.2831 73.8878 19.5973C73.552 18.9114 73.3841 18.105 73.3841 17.1778V10.9672H76.556V16.7396C76.556 17.4509 76.7363 18.0034 77.097 18.3971C77.4578 18.7908 77.9429 18.9876 78.5524 18.9876C79.1743 18.9876 79.6657 18.7908 80.0264 18.3971C80.3871 18.0034 80.5675 17.4509 80.5675 16.7396V10.9672H83.758Z" fill="#15223C"/>
<path d="M92.039 21.5976L88.0275 16.9873V21.5976H86.3296V7.5H88.0275V15.7871L91.9644 11.1578H94.334L89.5202 16.3586L94.3526 21.5976H92.039Z" fill="#15223C"/>
<path d="M105 11.1578V21.5976H103.302V20.0545C102.979 20.5879 102.525 21.007 101.94 21.3118C101.368 21.604 100.733 21.75 100.037 21.75C99.2408 21.75 98.5255 21.5849 97.8911 21.2547C97.2568 20.9118 96.753 20.4038 96.3798 19.7306C96.0191 19.0575 95.8387 18.2383 95.8387 17.2731V11.1578H97.518V17.0445C97.518 18.0732 97.773 18.867 98.283 19.4258C98.793 19.9719 99.4895 20.245 100.373 20.245C101.281 20.245 101.996 19.9592 102.518 19.3877C103.041 18.8162 103.302 17.9843 103.302 16.8921V11.1578H105Z" fill="#15223C"/>
</g>
<defs>
<clipPath id="clip0_6401_384">
<rect width="105" height="30" fill="white"/>
</clipPath>
</defs>
</svg>
