<svg width="20" height="24" viewBox="0 0 20 24" fill="none" xmlns="http://www.w3.org/2000/svg">
<g clip-path="url(#clip0_6401_574)">
<path d="M15.143 1.28577C17.0237 4.54332 18.0139 8.23855 18.0139 12.0001C18.0139 15.7616 17.0237 19.4568 15.143 22.7143M10.4287 3.64291C11.8957 6.1838 12.668 9.06608 12.668 12.0001C12.668 14.934 11.8957 17.8163 10.4287 20.3572M5.92871 5.8072C6.98945 7.664 7.54789 9.77028 7.54789 11.9143C7.54789 14.0584 6.98945 16.1647 5.92871 18.0215M1.42871 8.14291C2.19318 9.29989 2.59847 10.6363 2.59847 12.0001C2.59847 13.3638 2.19318 14.7002 1.42871 15.8572" stroke="white" stroke-width="2.57143" stroke-linecap="round"/>
</g>
<defs>
<clipPath id="clip0_6401_574">
<rect width="20" height="24" fill="white"/>
</clipPath>
</defs>
</svg>
